<?xml version="1.0" encoding="utf-8"?>
<!-- Generator: Adobe Illustrator 19.0.0, SVG Export Plug-In . SVG Version: 6.00 Build 0)  -->
<svg version="1.1" id="Layer_1" xmlns="http://www.w3.org/2000/svg" xmlns:xlink="http://www.w3.org/1999/xlink" x="0px" y="0px"
	 viewBox="342 -220.1 1280 1280" style="enable-background:new 342 -220.1 1280 1280;" xml:space="preserve">
<style type="text/css">
	.st0{fill:#FFFFFF;}
</style>
<g>
	<g transform="translate(0.000000,1280.000000) scale(0.100000,-0.100000)">
		<path d="M9660,14388.1c-130-41-227-87-261-124c-15-15-63-106-108-202l-81-174l10-95c6-53,20-135,31-184c17-74,19-97,10-133
			c-14-57-14-210,0-238c7-12,33-49,59-82c46-58,47-63,59-163c11-94,16-110,57-177c36-60,44-81,44-121c0-85-2-87-118-134
			c-148-59-351-162-452-228c-47-31-128-99-180-151c-80-81-104-112-147-196c-28-55-68-145-88-200l-38-100l-9-330l-9-330l-35-125
			c-45-164-80-347-99-528c-9-81-20-174-25-207c-38-250-50-415-49-693c0-158,4-323,8-367l8-80l-30-29c-36-35-63-94-72-157
			c-6-39-2-58,24-117c29-66,32-81,35-207l4-136l-65-152c-102-236-99-289,29-474c45-64,61-80,108-102s69-25,155-26c55,0,111,3,125,7
			l25,7l1-242c1-133,9-345,17-472c31-448,39-622,32-752l-6-133l77-147c61-117,90-162,140-213c53-54,66-76,83-130
			c11-36,49-166,86-289c86-289,162-441,320-639c39-48,65-124,65-188c0-45,8-51,94-70c40-9,40-9,73-105c63-183,67-323,14-472
			c-43-122-60-152-189-337c-96-136-118-175-130-225c-20-87-9-159,28-185c67-48,194-46,372,6c23,7-96-291-152-380l-42-66l17-50
			c9-29,26-56,38-63c15-8,73-12,182-12c270,0,529,50,587,113c32,35,83,120,114,191c14,31,49,81,78,111c78,81,82,107,47,255
			c-40,166-45,220-26,275c9,25,19,71,22,104c6,57,7,60,54,89c43,26,49,35,60,82c11,48,10,55-11,83c-37,50-41,91-13,130
			c32,43,53,95,63,156c8,48,5,56-38,138l-45,86l21,49c24,55,48,182,57,298c3,44,15,159,26,255c24,212,39,471,40,677l1,153l-42,71
			l-42,72l11,70c6,38,16,78,21,88c18,32,12,146-10,189c-11,21-24,41-30,45c-16,10-12,45,9,79c11,17,30,69,44,116
			c22,74,28,123,42,380c8,162,18,326,22,363l6,68l53,34c36,23,60,48,75,77c29,58,73,120,123,177c41,46,42,49,55,156
			c7,61,21,144,31,185s26,115,34,163c16,94,28,118,146,309c52,82,70,121,79,170c11,58,90,394,164,698l31,125l3,635
			c4,539,2,652-11,745c-9,61-25,218-36,350c-30,374-61,520-154,716c-29,63-71,164-91,224c-21,61-45,117-55,125c-9,8-187,113-396,233
			l-379,219l-76,102l-76,102l18,99c10,55,18,122,19,149c0,44,5,54,44,96c35,37,46,59,56,106c14,65,8,165-11,208c-10,22-9,36,4,80
			c9,29,17,65,17,80s10,75,21,133c20,96,21,115,10,186c-14,90-75,234-119,281c-34,36-151,123-216,161c-47,28-54,29-210,32
			C9767,14421.1,9764,14421.1,9660,14388.1z M8721,8604.1c-3-125-15-210-46-334c-24-94-55-314-55-391c0-62-7-70-43-47
			c-18,10-40,19-49,19c-10,0-18,6-18,13c0,6-4,50-10,96c-8,68-7,88,6,112c8,17,20,81,26,144c8,85,15,115,25,115c18,0,27,26,52,150
			c19,93,51,190,74,228c6,8,14,9,25,3C8721,8704.1,8724,8687.1,8721,8604.1z M9820,6961.1c20-109,30-199,30-262c0-52,5-120,12-149
			c7-30,12-85,13-124c0-38,9-108,19-155c14-64,17-105,12-170c-7-89,15-235,48-329c19-53,21-194,5-501c-12-238-26-341-28-206
			c-1,78-2,82-82,245c-170,346-207,427-220,476c-7,28-23,75-36,105c-21,47-24,64-18,120c3,36,10,164,15,285s16,270,24,330
			c8,61,20,153,26,205c7,51,19,112,27,135c7,22,27,94,44,159c43,172,49,179,66,81C9784,7162.1,9804,7052.1,9820,6961.1z"/>
	</g>
	<g>
		<g transform="translate(0.000000,1077.000000) scale(0.100000,-0.100000)">
			<path class="st0" d="M9361.5,11530.3c-29.5-29.2-10.8-98.6-0.7-128.4c14.8-44,23.4-62.9,37.4-82.2c26.6-37.1,66.1-53.7,137.9-58
				c51.1-3.1,101,8.2,134.8,30.6c21,13.9,40.7,41.7,67,94.2c5.4,10.9,11.2,22.7,12.9,26.4c4.4,10.1,14.5,26.4,18.3,29.6
				c11.2,9.5,35.9,13.3,54.2,8.3c7.6-2,17.6-7.6,20.4-11.4c5-6.6,10.9-17.5,24.2-44.2c27.7-55.7,48.1-86.4,66.6-100.2
				c19.9-15,48.2-25.5,84.2-31.1c14.9-2.4,63.9-2.6,80.9-0.5c34.8,4.5,62.6,13.5,83,27.2c9.1,6.1,24.1,21.6,31.3,32.4
				c13.3,19.7,21.3,37.8,36,81.1c10.2,30.2,17,134.7-10.1,135c-16,0.2-14.4,0-44.9-0.7c-30.5-0.6-80.7-1.6-111.4-2.1
				c-56.6-0.9-71.2-1.9-103.7-6.2c-35.5-4.9-81.7-13.4-107.3-19.7c-31.8-8-34.7-8.4-60.6-9c-28.6-0.6-39,0.5-67.5,7.4
				c-46.1,11.1-101.1,20.4-147.6,25c-10.7,1.1-36.4,2-76.7,2.6c-33.4,0.5-80.4,1.5-104.7,2.1
				C9360.8,11539.7,9365.1,11531.6,9361.5,11530.3z M9594.6,11513.2c38-4.6,67.2-11.6,90-21.9c3.5-1.6,6.2-3.2,5.9-3.6
				c-0.4-0.6,19.4-20.4,26.3-26.2l3.5-2.9l-0.6-9c-2-30.5-22.4-86.5-42.2-116.2c-8.7-13-18.2-22.3-29.1-28.4
				c-30.2-17-73.5-25.6-113.4-22.6c-46.7,3.6-72.3,14.1-98.4,40.1c-22.5,22.5-31.1,43.2-43.7,106.2c-3.9,20-4.9,26.5-5,36.3
				c-0.1,10.5,0.2,12.5,2.4,17.3c7.4,16.4,31.1,27.5,67,31.3c17.2,1.9,19,2,72,1.7C9568.7,11514.9,9583.8,11514.5,9594.6,11513.2z
				 M10157.5,11513.2c24.3-3.5,42.9-10.3,53.2-19.3c3-2.7,6.1-6.8,8.2-11.2c3.1-6.3,3.4-7.6,3.3-16.8c-0.1-16.4-12.3-75.7-20.2-98.2
				c-6.6-19-14.5-31.6-27.3-44.4c-29.6-29.3-63.9-41.3-118.3-41.4c-48-0.1-89.5,13.2-111.5,35.7c-20.8,21.1-43.6,71.4-52.7,116.1
				c-1.9,9.4-3.7,26.6-2.7,24.3c0.3-0.6,3.5,1.7,7.2,5.2c3.6,3.5,11.2,10.8,16.8,16.2c5.6,5.4,10.1,10.3,10,10.7
				c-0.1,0.5,0.2,0.6,0.8,0.2c0.5-0.3,1-0.2,1,0.4c0,3.1,38.1,14.5,62.2,18.7c32.1,5.5,45.3,6.2,105.7,5.8
				C10135.2,11514.9,10148,11514.5,10157.5,11513.2z"/>
		</g>
	</g>
</g>
</svg>
